<svg width="221" height="239" viewBox="0 0 221 239" fill="none" xmlns="http://www.w3.org/2000/svg">
<rect width="40.0637" height="40.0637" transform="matrix(-1 0 0 1 219.582 37.4082)" fill="#F9F9F9" stroke="black" stroke-width="1.26201" stroke-linejoin="round"/>
<rect width="40.0637" height="40.0637" transform="matrix(-1 0 0 1 139.453 117.536)" fill="#F9F9F9" stroke="black" stroke-width="1.26201" stroke-linejoin="round"/>
<rect width="40.0637" height="40.0637" transform="matrix(-1 0 0 1 219.582 117.536)" fill="#F9F9F9" stroke="black" stroke-width="1.26201" stroke-linejoin="round"/>
<rect width="40.0637" height="40.0637" transform="matrix(-1 0 0 1 179.52 117.536)" fill="#F9F9F9" stroke="black" stroke-width="1.26201" stroke-linejoin="round"/>
<rect width="40.0637" height="40.0637" transform="matrix(-1 0 0 1 219.582 77.4722)" stroke="black" stroke-width="1.26201" stroke-linejoin="round"/>
<rect width="40.0637" height="40.0637" transform="matrix(-1 0 0 1 139.453 157.599)" stroke="black" stroke-width="1.26201" stroke-linejoin="round"/>
<rect width="40.0637" height="40.0637" transform="matrix(-1 0 0 1 139.453 197.663)" fill="#F9F9F9" stroke="black" stroke-width="1.26201" stroke-linejoin="round"/>
<rect width="40.0637" height="40.0637" transform="matrix(-1 0 0 1 219.582 157.599)" fill="#F9F9F9" stroke="black" stroke-width="1.26201" stroke-linejoin="round"/>
<rect width="40.0637" height="40.0637" transform="matrix(-1 0 0 1 219.582 197.663)" stroke="black" stroke-width="1.26201" stroke-linejoin="round"/>
<rect width="40.0637" height="40.0637" transform="matrix(-1 0 0 1 179.52 77.4722)" fill="#F9F9F9" stroke="black" stroke-width="1.26201" stroke-linejoin="round"/>
<rect width="40.0637" height="40.0637" transform="matrix(-1 0 0 1 99.3906 157.599)" fill="#F9F9F9" stroke="black" stroke-width="1.26201" stroke-linejoin="round"/>
<rect width="40.0637" height="40.0637" transform="matrix(-1 0 0 1 99.3906 197.663)" fill="#F9F9F9" stroke="black" stroke-width="1.26201" stroke-linejoin="round"/>
<rect width="40.0637" height="40.0637" transform="matrix(-1 0 0 1 59.3281 197.663)" fill="#F9F9F9" stroke="black" stroke-width="1.26201" stroke-linejoin="round"/>
<rect width="40.0637" height="40.0637" transform="matrix(-1 0 0 1 179.52 157.599)" fill="#F9F9F9" stroke="black" stroke-width="1.26201" stroke-linejoin="round"/>
<rect width="40.0637" height="40.0637" transform="matrix(-1 0 0 1 179.52 197.663)" fill="#F9F9F9" stroke="black" stroke-width="1.26201" stroke-linejoin="round"/>
<path d="M166.746 8.75073C166.746 87.7507 8.74609 87.7507 8.74609 166.751" stroke="white" stroke-width="1.26201" stroke-linecap="square" stroke-linejoin="round" stroke-dasharray="12.62 12.62"/>
<path d="M8.74828 174.323C12.9302 174.323 16.3203 170.933 16.3203 166.751C16.3203 162.569 12.9302 159.179 8.74828 159.179C4.56636 159.179 1.17624 162.569 1.17624 166.751C1.17624 170.933 4.56636 174.323 8.74828 174.323Z" fill="#F2932D" stroke="#F2932D" stroke-width="1.26201" stroke-linecap="square" stroke-linejoin="round"/>
<path d="M166.744 16.3228C170.926 16.3228 174.316 12.9326 174.316 8.75072C174.316 4.5688 170.926 1.17868 166.744 1.17868C162.562 1.17868 159.172 4.5688 159.172 8.75072C159.172 12.9326 162.562 16.3228 166.744 16.3228Z" fill="#F2932D" stroke="#F2932D" stroke-width="1.26201" stroke-linecap="square" stroke-linejoin="round"/>
<path d="M87.7444 95.3228C91.9263 95.3228 95.3164 91.9326 95.3164 87.7507C95.3164 83.5688 91.9263 80.1787 87.7444 80.1787C83.5625 80.1787 80.1723 83.5688 80.1723 87.7507C80.1723 91.9326 83.5625 95.3228 87.7444 95.3228Z" fill="#F2932D" stroke="#F2932D" stroke-width="1.26201" stroke-linecap="square" stroke-linejoin="round"/>
</svg>
