<svg width="12" height="11" viewBox="0 0 12 11" fill="none" xmlns="http://www.w3.org/2000/svg">
<path d="M11.3761 4.22107C11.3066 4.00629 11.1161 3.85375 10.8907 3.83344L7.82932 3.55546L6.61876 0.722002C6.52949 0.514346 6.32621 0.379929 6.10035 0.379929C5.87448 0.379929 5.6712 0.514346 5.58193 0.722487L4.37137 3.55546L1.30946 3.83344C1.08448 3.85423 0.89447 4.00629 0.824631 4.22107C0.754792 4.43585 0.81929 4.67142 0.989477 4.81992L3.30355 6.84938L2.62118 9.8552C2.57125 10.0762 2.65703 10.3047 2.84041 10.4372C2.93898 10.5084 3.0543 10.5447 3.17059 10.5447C3.27086 10.5447 3.37031 10.5177 3.45957 10.4643L6.10035 8.88596L8.74014 10.4643C8.93331 10.5805 9.17682 10.5699 9.35979 10.4372C9.54325 10.3043 9.62895 10.0757 9.57902 9.8552L8.89665 6.84938L11.2107 4.82033C11.3809 4.67142 11.4459 4.43625 11.3761 4.22107Z" fill="#FFC107"/>
</svg>
