<svg width="173" height="272" viewBox="0 0 173 272" fill="none" xmlns="http://www.w3.org/2000/svg">
<path d="M81.0577 117.121C124.595 117.121 170.161 132.335 170.161 151.102C170.161 169.869 124.642 184.927 81.1049 184.927C43.4848 184.927 2.71484 175.664 2.71484 164.238C2.71484 152.811 43.4283 143.548 81.0484 143.548C118.884 143.548 156.404 158.762 156.404 177.529C156.404 196.296 118.884 211.51 81.0484 211.51C48.3551 211.51 15.0444 202.091 15.0444 190.665C15.0444 179.239 42.4446 172.765 75.138 172.765C112.462 172.765 142.98 185.189 142.98 203.956C142.98 227.04 109.723 233.888 83.5274 233.888C64.7589 233.888 32.8483 227.536 32.8483 217.281C32.8483 207.025 58.8952 200.844 81.1049 200.844C113.408 200.844 130.953 213.343 130.953 226.697C130.953 245.873 99.279 254.263 83.5274 254.263" stroke="#CBF158" stroke-width="1.3697" stroke-linejoin="round"/>
<path d="M90.7191 117.121L75.6523 109.245V124.997L90.7191 117.121Z" fill="#151515" stroke="#CBF158" stroke-width="1.3697" stroke-linejoin="round"/>
<path d="M88.4091 184.921L73.4336 192.969L73.2532 177.218L88.4091 184.921Z" fill="#151515" stroke="#CBF158" stroke-width="1.3697" stroke-linejoin="round"/>
<path d="M88.5042 254.091L73.4375 261.967L73.4375 246.216L88.5042 254.091Z" fill="#151515" stroke="#CBF158" stroke-width="1.3697" stroke-linejoin="round"/>
<path d="M172.283 86.6065C172.283 100.6 168.926 113.809 162.973 125.472C148.812 153.216 119.963 172.213 86.6768 172.213C53.3908 172.213 24.5418 153.216 10.3808 125.472C4.42768 113.809 1.07031 100.6 1.07031 86.6065C1.07031 72.6134 4.42768 59.4044 10.3808 47.7412C24.5418 19.9974 53.3908 1 86.6768 1C119.963 1 148.812 19.9974 162.973 47.7412C168.926 59.4044 172.283 72.6134 172.283 86.6065Z" fill="#F9F9F9"/>
<path d="M172.283 86.6065H86.6768H1.07031M172.283 86.6065C172.283 72.6134 168.926 59.4044 162.973 47.7412M172.283 86.6065C172.283 100.6 168.926 113.809 162.973 125.472M86.6768 172.213V47.7412M86.6768 172.213C119.963 172.213 148.812 153.216 162.973 125.472M86.6768 172.213C53.3908 172.213 24.5418 153.216 10.3808 125.472M1.07031 86.6065C1.07031 100.6 4.42768 113.809 10.3808 125.472M1.07031 86.6065C1.07031 72.6134 4.42768 59.4044 10.3808 47.7412M86.6768 1V47.7412M86.6768 1C119.963 1 148.812 19.9974 162.973 47.7412M86.6768 1C53.3908 1 24.5418 19.9974 10.3808 47.7412M86.6768 47.7412H162.973M86.6768 47.7412H10.3808M162.973 125.472H10.3808" stroke="black" stroke-width="1.3697" stroke-linejoin="round"/>
<ellipse cx="86.6779" cy="86.6065" rx="85.6065" ry="32.8729" transform="rotate(90 86.6779 86.6065)" stroke="black" stroke-width="1.3697" stroke-linejoin="round"/>
<ellipse cx="86.6772" cy="86.6065" rx="85.6065" ry="63.0064" transform="rotate(90 86.6772 86.6065)" stroke="black" stroke-width="1.3697" stroke-linejoin="round"/>
</svg>
